<svg width="20" height="16" viewBox="0 0 20 16" fill="none" xmlns="http://www.w3.org/2000/svg">
<path fill-rule="evenodd" clip-rule="evenodd" d="M12.732 0C12.8143 4.25504e-05 12.8954 0.0204201 12.968 0.0593228C13.0405 0.0982256 13.1024 0.154449 13.148 0.223L15 3H19C19.2652 3 19.5196 3.10536 19.7071 3.29289C19.8946 3.48043 20 3.73478 20 4V15C20 15.2652 19.8946 15.5196 19.7071 15.7071C19.5196 15.8946 19.2652 16 19 16H1C0.734784 16 0.48043 15.8946 0.292893 15.7071C0.105357 15.5196 0 15.2652 0 15V4C0 3.73478 0.105357 3.48043 0.292893 3.29289C0.48043 3.10536 0.734784 3 1 3H5L6.852 0.223C6.89762 0.154449 6.95946 0.0982256 7.03203 0.0593228C7.1046 0.0204201 7.18566 4.25504e-05 7.268 0H12.732ZM10 12.5C10.9283 12.5 11.8185 12.1313 12.4749 11.4749C13.1313 10.8185 13.5 9.92826 13.5 9C13.5 8.07174 13.1313 7.1815 12.4749 6.52513C11.8185 5.86875 10.9283 5.5 10 5.5C9.07174 5.5 8.1815 5.86875 7.52513 6.52513C6.86875 7.1815 6.5 8.07174 6.5 9C6.5 9.92826 6.86875 10.8185 7.52513 11.4749C8.1815 12.1313 9.07174 12.5 10 12.5Z" fill="black"/>
</svg>
