<svg width="166" height="77" viewBox="0 0 166 77" fill="none" xmlns="http://www.w3.org/2000/svg">
<path d="M24.708 15.276C24.708 20.116 22.2 22.624 20.572 23.68C17.888 25.396 14.984 25.44 11.948 25.44H7.416V36H1.608V4.936H12.08C12.828 4.936 13.576 4.892 14.324 4.936C15.688 5.024 19.604 5.288 22.376 8.544C24.62 11.14 24.708 14.044 24.708 15.276ZM18.724 15.1C18.724 14.132 18.504 13.076 18.02 12.196C16.7 9.908 14.104 9.908 11.86 9.908H7.416V20.688H11.596C11.992 20.688 12.432 20.644 12.828 20.644C15.82 20.512 17.14 19.588 17.888 18.356C18.196 17.828 18.724 16.684 18.724 15.1ZM49.04 31.072C48.688 31.556 48.072 32.392 47.016 33.36C45.784 34.504 42.836 36.66 38.304 36.66C36.896 36.66 33.42 36.484 30.428 33.712C27.92 31.336 26.996 28.3 26.996 24.868C26.996 23.02 27.26 21.26 27.964 19.588C28.932 17.388 31.66 13.34 38.04 13.34C42.968 13.34 45.564 15.892 46.708 17.564C47.72 19.104 48.732 21.788 48.864 26.056H32.584C32.672 26.716 32.892 28.08 33.992 29.4C34.74 30.324 36.06 31.512 38.788 31.512C41.516 31.512 43.1 30.236 43.804 29.488C43.98 29.312 44.244 28.96 44.552 28.476L49.04 31.072ZM43.056 22.184C43.056 22.184 42.924 21.128 42.616 20.38C42.132 19.324 40.988 17.564 38.128 17.564C36.984 17.564 36.368 17.784 35.928 17.96C33.464 18.972 32.892 21.436 32.76 22.184H43.056ZM63.583 35.824C62.879 35.912 61.603 36.176 59.799 36.176C56.895 36.176 55.399 35.472 54.519 34.416C54.079 33.888 53.903 33.36 53.859 33.14C53.639 32.436 53.595 30.896 53.595 28.96V17.74H50.383V14H53.595V6.168H58.875V14H63.583V17.74H58.875V27.728C58.875 28.608 58.743 30.28 59.403 30.984C60.019 31.688 61.295 31.644 61.427 31.644C62.175 31.644 62.923 31.556 63.583 31.38V35.824ZM87.54 31.072C87.188 31.556 86.572 32.392 85.516 33.36C84.284 34.504 81.336 36.66 76.804 36.66C75.396 36.66 71.92 36.484 68.928 33.712C66.42 31.336 65.496 28.3 65.496 24.868C65.496 23.02 65.76 21.26 66.464 19.588C67.432 17.388 70.16 13.34 76.54 13.34C81.468 13.34 84.064 15.892 85.208 17.564C86.22 19.104 87.232 21.788 87.364 26.056H71.084C71.172 26.716 71.392 28.08 72.492 29.4C73.24 30.324 74.56 31.512 77.288 31.512C80.016 31.512 81.6 30.236 82.304 29.488C82.48 29.312 82.744 28.96 83.052 28.476L87.54 31.072ZM81.556 22.184C81.556 22.184 81.424 21.128 81.116 20.38C80.632 19.324 79.488 17.564 76.628 17.564C75.484 17.564 74.868 17.784 74.428 17.96C71.964 18.972 71.392 21.436 71.26 22.184H81.556ZM103.623 18.928C102.523 18.928 98.299 18.928 97.023 22.976C96.627 24.208 96.627 25.308 96.627 26.584V36H91.523V14H96.627V17.124C96.979 16.464 97.419 15.804 97.947 15.32C99.707 13.604 102.567 13.516 103.183 13.516H103.623V18.928Z" fill="black"/>
<path d="M26.808 61.76C26.808 64.576 25.928 66.732 23.772 68.58C20.032 71.748 15.016 71.792 13.608 71.792C11.76 71.792 5.82 71.704 1.508 67.172C0.98 66.6 0.408 65.852 0.0120001 65.148L4.896 61.76C6.26 63.784 8.812 66.424 14.532 66.424C14.796 66.424 15.896 66.424 16.82 66.204C17.48 66.072 20.516 65.236 20.516 62.332C20.516 62.024 20.472 61.188 19.944 60.484C18.888 59.076 16.072 58.68 14.532 58.328L10.836 57.492C9.252 57.14 7.536 56.788 6.128 56.04C4.676 55.292 1.684 53.312 1.684 48.824C1.684 48.12 1.772 46.096 2.872 44.248C4.28 41.872 7.668 39.144 13.96 39.144C16.732 39.144 22.188 39.584 26.5 45.436L21.704 49C20.736 47.46 18.536 44.38 13.652 44.38C13.344 44.38 9.428 44.336 8.152 46.756C7.888 47.24 7.8 47.68 7.8 48.164C7.8 48.692 7.932 49.132 8.196 49.572C8.944 50.848 10.66 51.244 13.52 51.86L16.732 52.564C19.68 53.224 22.936 54.104 25.004 56.524C25.884 57.492 26.808 58.9 26.808 61.76ZM51.0957 71H45.8157L45.7717 68.756C44.6717 69.768 42.5157 71.528 38.6877 71.528C35.0357 71.528 33.2317 69.944 32.3517 68.624C30.9437 66.556 31.0757 64.048 31.0757 61.672V49H36.3997V60.88C36.3997 62.684 36.3117 64.84 38.1597 65.896C38.8637 66.336 39.8757 66.556 40.7117 66.556C43.2637 66.556 44.5397 64.884 44.9797 64.092C45.8597 62.42 45.8157 60.044 45.8157 58.328V49H51.0957V71ZM68.916 53.928C67.816 53.928 63.592 53.928 62.316 57.976C61.92 59.208 61.92 60.308 61.92 61.584V71H56.816V49H61.92V52.124C62.272 51.464 62.712 50.804 63.24 50.32C65 48.604 67.86 48.516 68.476 48.516H68.916V53.928ZM84.4707 53.928C83.3707 53.928 79.1467 53.928 77.8707 57.976C77.4747 59.208 77.4747 60.308 77.4747 61.584V71H72.3707V49H77.4747V52.124C77.8267 51.464 78.2667 50.804 78.7947 50.32C80.5547 48.604 83.4147 48.516 84.0307 48.516H84.4707V53.928ZM108.649 66.072C108.297 66.556 107.681 67.392 106.625 68.36C105.393 69.504 102.445 71.66 97.9134 71.66C96.5054 71.66 93.0294 71.484 90.0374 68.712C87.5294 66.336 86.6054 63.3 86.6054 59.868C86.6054 58.02 86.8694 56.26 87.5734 54.588C88.5414 52.388 91.2694 48.34 97.6494 48.34C102.577 48.34 105.173 50.892 106.317 52.564C107.329 54.104 108.341 56.788 108.473 61.056H92.1934C92.2814 61.716 92.5014 63.08 93.6014 64.4C94.3494 65.324 95.6694 66.512 98.3974 66.512C101.125 66.512 102.709 65.236 103.413 64.488C103.589 64.312 103.853 63.96 104.161 63.476L108.649 66.072ZM102.665 57.184C102.665 57.184 102.533 56.128 102.225 55.38C101.741 54.324 100.597 52.564 97.7374 52.564C96.5934 52.564 95.9774 52.784 95.5374 52.96C93.0734 53.972 92.5014 56.436 92.3694 57.184H102.665ZM131.816 71H126.624V59.78C126.624 58.064 126.624 57.228 126.404 56.392C125.788 53.84 123.808 53.488 122.752 53.488C122.18 53.488 121.08 53.576 119.98 54.5C118.396 55.82 117.912 57.668 117.912 61.452V71H112.588V49H117.912V51.596C118 51.464 118.44 50.892 118.88 50.452C120.948 48.516 123.94 48.34 124.688 48.34C127.944 48.34 129.836 50.012 130.54 51.024C131.948 53.048 131.816 55.82 131.816 58.064V71ZM156.523 71H150.275L150.143 69.284C149.307 69.988 148.559 70.34 148.119 70.516C146.667 71.176 145.303 71.528 143.675 71.528C142.619 71.528 138.659 71.396 136.635 68.14C136.283 67.568 135.623 66.38 135.667 64.62C135.667 63.388 135.975 60.924 138.659 59.12C140.463 57.888 142.179 57.624 144.203 57.228C147.459 56.568 148.647 56.304 150.275 55.732C150.275 55.16 150.231 54.456 149.967 53.928C149.527 53.092 148.427 52.432 146.491 52.432C144.467 52.432 143.191 53.048 142.619 53.796C142.003 54.544 142.047 55.424 142.047 55.732L136.679 55.424C136.723 54.456 136.899 52.124 139.055 50.364C140.419 49.22 142.487 48.34 146.315 48.34C149.923 48.34 152.035 49.088 153.399 50.056C154.323 50.716 154.807 51.464 154.983 51.816C155.555 52.96 155.555 54.5 155.555 55.732V67.436C155.555 69.108 155.643 69.592 156.523 71ZM150.275 62.464V60.044C149.395 60.484 148.251 60.924 146.095 61.276C144.907 61.496 143.631 61.54 142.531 62.2C141.783 62.684 141.255 63.432 141.255 64.4C141.255 65.72 142.223 66.996 144.863 66.996C147.767 66.996 149.483 65.5 149.967 64.488C150.319 63.784 150.275 63.168 150.275 62.464Z" fill="black"/>
</svg>
